<svg width="12" height="15" viewBox="0 0 12 15" fill="none" xmlns="http://www.w3.org/2000/svg">
<path d="M6 14.4853L1.75734 10.2426C0.918228 9.4035 0.346791 8.3344 0.115286 7.17051C-0.11622 6.00663 0.00260456 4.80023 0.456732 3.70388C0.91086 2.60753 1.6799 1.67046 2.66659 1.01118C3.65328 0.351892 4.81332 0 6 0C7.18669 0 8.34672 0.351892 9.33342 1.01118C10.3201 1.67046 11.0891 2.60753 11.5433 3.70388C11.9974 4.80023 12.1162 6.00663 11.8847 7.17051C11.6532 8.3344 11.0818 9.4035 10.2427 10.2426L6 14.4853ZM9.3 9.29995C9.9526 8.64728 10.397 7.81576 10.577 6.91053C10.7571 6.0053 10.6646 5.06701 10.3114 4.21432C9.95817 3.36162 9.36003 2.63282 8.59261 2.12006C7.82519 1.6073 6.92296 1.33362 6 1.33362C5.07704 1.33362 4.17481 1.6073 3.40739 2.12006C2.63997 2.63282 2.04183 3.36162 1.68861 4.21432C1.33539 5.06701 1.24294 6.0053 1.42297 6.91053C1.603 7.81576 2.04741 8.64728 2.7 9.29995L6 12.5999L9.3 9.29995ZM6 7.33328C5.64638 7.33328 5.30724 7.19281 5.05719 6.94276C4.80715 6.69271 4.66667 6.35357 4.66667 5.99995C4.66667 5.64633 4.80715 5.30719 5.05719 5.05714C5.30724 4.80709 5.64638 4.66661 6 4.66661C6.35362 4.66661 6.69276 4.80709 6.94281 5.05714C7.19286 5.30719 7.33334 5.64633 7.33334 5.99995C7.33334 6.35357 7.19286 6.69271 6.94281 6.94276C6.69276 7.19281 6.35362 7.33328 6 7.33328Z" fill="#7E7E7E"/>
</svg>
